<?xml version="1.0" encoding="iso-8859-1"?>
<!-- Generator: Adobe Illustrator 19.0.0, SVG Export Plug-In . SVG Version: 6.00 Build 0)  -->
<svg version="1.1" id="Capa_1" xmlns="http://www.w3.org/2000/svg" xmlns:xlink="http://www.w3.org/1999/xlink" x="0px" y="0px"
	 viewBox="0 0 512 512" style="enable-background:new 0 0 512 512;" xml:space="preserve">
<path style="fill:#063E8B;" d="M45,199.48c-2.622,0-5.259-0.688-7.603-2.065C32.813,194.72,30,189.798,30,184.48V48.074
	c0-17.651,9.932-33.267,25.913-40.752c15.923-7.5,34.307-5.171,47.886,6.167l94.922,79.087c3.794,3.164,5.786,7.998,5.332,12.92
	c-0.469,4.922-3.325,9.302-7.632,11.704L52.31,197.576C50.039,198.851,47.52,199.48,45,199.48z"/>
<path style="fill:#032E68;" d="M467,199.48c-2.52,0-5.039-0.63-7.31-1.904L315.579,117.2c-4.307-2.402-7.163-6.782-7.632-11.704
	c-0.454-4.922,1.538-9.756,5.332-12.92l94.907-79.087c13.594-11.265,31.948-13.623,47.9-6.167C472.068,14.808,482,30.423,482,48.074
	V184.48c0,5.317-2.813,10.239-7.397,12.935C472.259,198.792,469.622,199.48,467,199.48z"/>
<path style="fill:#0A4EAF;" d="M302,509.017h-92c-115.796,0-210-94.204-210-210s94.204-210,210-210h92c115.796,0,210,94.204,210,210
	S417.796,509.017,302,509.017z"/>
<g>
	<path style="fill:#063E8B;" d="M302,89.017h-46v420h46c115.796,0,210-94.204,210-210S417.796,89.017,302,89.017z"/>
	<path style="fill:#063E8B;" d="M346,374.017c-8.291,0-15,6.709-15,15c0,16.538-13.462,30-30,30s-30-13.462-30-30
		c0-8.291-6.709-15-15-15s-15,6.709-15,15c0,16.538-13.462,30-30,30s-30-13.462-30-30c0-8.291-6.709-15-15-15s-15,6.709-15,15
		c0,33.091,26.909,60,60,60c18.007,0,33.995-8.134,45-20.729c11.005,12.596,26.993,20.729,45,20.729c33.091,0,60-26.909,60-60
		C361,380.726,354.291,374.017,346,374.017z"/>
</g>
<path style="fill:#032E68;" d="M301,449.017c33.091,0,60-26.909,60-60c0-8.291-6.709-15-15-15s-15,6.709-15,15
	c0,16.538-13.462,30-30,30s-30-13.462-30-30c0-8.291-6.709-15-15-15v54.271C267.005,440.883,282.993,449.017,301,449.017z"/>
<path style="fill:#FFCC33;" d="M362,299.017c-48.398,0-85.474-48.94-87.026-51.035c-3.97-5.317-3.97-12.612,0-17.93
	c1.553-2.095,38.628-51.035,87.026-51.035s85.474,48.94,87.026,51.035c3.97,5.317,3.97,12.612,0,17.93
	C447.474,250.076,410.398,299.017,362,299.017z"/>
<path style="fill:#032E68;" d="M362,269.017c-8.284,0-15-6.716-15-15v-60c0-8.284,6.716-15,15-15s15,6.716,15,15v60
	C377,262.301,370.284,269.017,362,269.017z"/>
<path style="fill:#FEDB41;" d="M150,299.017c-48.398,0-85.474-48.94-87.026-51.035c-3.97-5.317-3.97-12.612,0-17.93
	c1.553-2.095,38.628-51.035,87.026-51.035s85.474,48.94,87.026,51.035c3.97,5.317,3.97,12.612,0,17.93
	C235.474,250.076,198.398,299.017,150,299.017z"/>
<path style="fill:#063E8B;" d="M150,269.017c-8.284,0-15-6.716-15-15v-60c0-8.284,6.716-15,15-15s15,6.716,15,15v60
	C165,262.301,158.284,269.017,150,269.017z"/>
<path style="fill:#1689FC;" d="M256,389.017c-3.838,0-7.676-1.465-10.605-4.395L211,350.228
	c-8.613-8.613-11.162-21.445-6.504-32.695s15.542-18.516,27.715-18.516h47.578c12.173,0,23.057,7.266,27.715,18.516
	s2.109,24.082-6.504,32.695l-34.395,34.395C263.676,387.552,259.838,389.017,256,389.017z"/>
<path style="fill:#136EF1;" d="M279.789,299.017H256v90c3.838,0,7.676-1.465,10.605-4.395L301,350.228
	c8.613-8.613,11.162-21.445,6.504-32.695S291.962,299.017,279.789,299.017z"/>
<g>
</g>
<g>
</g>
<g>
</g>
<g>
</g>
<g>
</g>
<g>
</g>
<g>
</g>
<g>
</g>
<g>
</g>
<g>
</g>
<g>
</g>
<g>
</g>
<g>
</g>
<g>
</g>
<g>
</g>
</svg>
